<svg xmlns="http://www.w3.org/2000/svg" xmlns:xlink="http://www.w3.org/1999/xlink" xmlns:inkscape="http://www.inkscape.org/namespaces/inkscape" version="1.1" width="485" height="255" viewBox="180 170 485 255">
<g inkscape:groupmode="layer" inkscape:label="Layer 1">
<path transform="matrix(1,0,0,-1,0,595.2756)" d="M291.2922 264.2825C296.8826 245.3774 307.129 228.4727 320.705 214.8965 341.8279 193.7738 371.0109 180.7078 403.2445 180.7078 435.4767 180.7078 464.6588 193.7738 485.7814 214.8965 499.3577 228.4727 509.6038 245.3774 515.1943 264.2825H521.0824C515.3346 243.8127 504.4005 225.5139 489.7823 210.8957 467.6355 188.7491 437.0391 175.0507 403.2445 175.0507 369.4484 175.0507 338.851 188.7491 316.7042 210.8957 302.0862 225.5139 291.1521 243.8127 285.4043 264.2825ZM515.1932 330.588C509.6038 349.492 499.3577 366.3981 485.7814 379.974 464.6588 401.0967 435.4767 414.1638 403.2445 414.1638 371.0109 414.1638 341.8279 401.0967 320.7061 379.974 307.1302 366.3981 296.8826 349.492 291.2933 330.588H285.4054C291.1533 351.0578 302.0885 369.3577 316.7053 383.9749 338.8499 406.1203 369.4484 419.8209 403.2445 419.8209 437.0391 419.8209 467.6355 406.1214 489.7823 383.9749 504.3983 369.3577 515.3335 351.0578 521.0813 330.588Z" fill="#000000"/>
<path transform="matrix(1,0,0,-1,0,595.2756)" d="M459.0099 352.1599C458.1887 352.4797 457.5178 353.3281 457.6209 354.2363 457.7173 355.1445 458.4169 355.9263 459.2857 356.1797 460.355 356.5202 461.5693 355.773 461.7808 354.6802 462.3744 353.158 460.4817 351.3759 459.0099 352.1599ZM402.9633 277.0631C392.1126 277.0631 383.3164 285.8596 383.3164 296.71 383.3164 307.5608 392.1126 316.3572 402.9633 316.3572 413.814 316.3572 422.6105 307.5608 422.6105 296.71 422.6105 285.8596 413.814 277.0631 402.9633 277.0631ZM456.9911 241.2995C457.0761 242.0427 457.7085 242.5805 458.3891 242.7871 459.6627 243.2015 461.2428 242.2174 461.2657 240.8417 461.3508 239.3223 459.4745 238.0757 458.1317 238.8552 457.2417 239.2946 456.9633 240.3845 456.9911 241.2995ZM348.3703 240.1937C347.8187 238.8849 345.8801 238.2803 344.8661 239.4255 343.8011 240.3916 344.2337 242.2378 345.4611 242.8472 347.0066 243.7716 349.1039 241.799 348.3703 240.1937ZM346.5351 351.9785C345.3857 351.815 344.2677 352.8201 344.2493 353.9653 344.1991 354.8642 344.8843 355.6528 345.6893 355.9632 346.9649 356.3592 348.467 355.3498 348.5265 354.0064 348.3221 353.0293 347.5471 352.137 346.5351 351.9785ZM486.4207 334.3173C484.2159 337.5578 481.4331 340.3517 478.5562 342.9913 475.3644 345.6961 472.053 348.3541 468.2682 350.1848 469.3652 352.6381 469.319 355.5312 468.2656 357.9914 467.0748 360.7492 464.4896 362.878 461.526 363.4234 459.4054 363.9294 457.2119 363.4415 455.2319 362.6436 452.4789 366.5874 448.9767 369.9567 445.1851 372.8908 442.6758 374.8221 440.0498 376.6504 437.1454 377.9427 436.0076 378.4555 434.7564 378.8215 433.5004 378.6007 433.3212 378.4212 433.1418 378.2421 432.9652 378.0649 432.9096 377.437 432.9238 376.7885 433.2042 376.2091 434.0018 374.3416 435.308 372.7505 436.6327 371.2368 438.2563 369.3288 440.119 367.645 441.9978 365.9964 445.0309 363.5062 448.158 361.0777 451.6373 359.2338 450.2001 356.6968 449.7542 353.5489 450.8439 350.8007 441.3288 340.6088 430.2264 331.9095 418.102 325.0261 413.5252 327.5246 408.2831 328.9436 402.7122 328.9436 397.6047 328.9436 392.7756 327.7497 388.4805 325.626 384.8706 327.4571 381.4534 329.654 378.1409 331.9767 369.8416 337.8385 362.198 344.5713 354.8852 351.6083 355.6162 353.8596 355.3172 356.3314 354.3103 358.4492 356.3776 359.574 358.24 361.027 360.0386 362.5336 363.782 365.707 367.3006 369.216 370.0278 373.316 370.849 374.5877 371.626 375.9259 372.003 377.4047 372.162 377.977 372.0861 378.6721 371.5665 379.0349 370.4462 379.3731 369.3146 378.8697 368.312 378.4051 365.8864 377.1933 363.7108 375.5443 361.6226 373.8263 357.6027 370.4 353.9098 366.5092 351.093 362.0248 348.0695 364.1522 343.7779 364.1244 340.7199 362.0826 338.5145 360.6684 336.9691 358.27 336.5824 355.6786 336.3202 353.7488 336.5892 351.7347 337.4796 349.9917 335.7663 349.0671 334.2098 347.8847 332.6848 346.6797 328.424 343.2053 324.4292 339.3031 321.4397 334.6577 320.711 333.4343 319.9314 332.1655 319.7384 330.728 319.6831 330.2152 319.7268 329.4862 320.3388 329.341 321.6722 329.0536 322.9396 329.7784 324.0916 330.3553 327.2326 332.0776 330.0106 334.3844 332.6321 336.8058 333.8989 337.9187 334.9868 339.2155 336.1436 340.4367 337.7945 342.3135 339.3859 344.2589 340.6669 346.4107 343.0837 344.6929 346.3557 344.3369 349.1087 345.4106 359.4115 336.282 368.3483 325.5908 375.3405 313.7258 372.1915 308.6986 370.3677 302.745 370.3677 296.3614 370.3677 291.2519 371.5359 286.4183 373.6171 282.1144 371.2748 277.6246 368.3934 273.4257 365.3756 269.3659 360.2452 262.5707 354.6162 256.1618 348.6807 250.0586 346.2545 250.6912 343.5001 250.6311 341.3129 249.2904 338.8385 253.1906 335.4259 256.3872 331.9764 259.4203 329.2262 261.7291 326.3332 263.9296 323.0563 265.4433 322.0191 265.8963 320.8972 266.3376 319.7404 266.1809 319.1703 266.1352 318.8852 265.4867 318.9149 264.9759 319.1196 263.516 319.9476 262.2441 320.762 261.0505 323.1992 257.6494 326.2694 254.7612 329.4354 252.0502 332.1009 249.838 334.9293 247.7818 338.0545 246.2692 337.5003 245.1606 337.0056 244.0063 336.8174 242.7715 336.2837 239.8045 337.314 236.5991 339.5032 234.5179 342.4076 231.5931 347.4553 230.8547 350.9048 233.2417 352.9145 230.2685 355.483 227.732 358.0537 225.2489 361.0896 222.5441 364.3112 219.9711 367.988 218.1912 369.2251 217.6532 370.5959 217.0026 371.9684 217.3978 372.5481 217.8071 372.4169 218.63 372.2953 219.2284 371.9412 220.4493 371.2232 221.5259 370.506 222.5602 368.977 224.6647 367.2111 226.5823 365.3459 228.3849 361.9655 231.5585 358.3091 234.4541 354.3126 236.8111 355.3863 239.0621 355.5522 241.6493 354.8852 244.0406 358.2609 247.8328 361.8369 251.443 365.6174 254.8304 371.5778 260.1649 377.9535 265.0703 384.7856 269.2389 389.9171 265.7908 396.0811 263.7794 402.7122 263.7794 409.0969 263.7794 415.0491 265.644 420.0625 268.8599 423.7719 266.5565 427.2973 263.9582 430.702 261.2276 437.502 255.7894 443.8395 249.806 450.0164 243.6797 449.4141 241.346 449.5105 238.7239 450.8167 236.6359 447.2337 234.4079 444.113 231.5171 441.2874 228.4061 438.6954 225.5749 436.1868 222.5741 434.5033 219.0994 434.0914 218.069 433.3995 216.6732 434.3652 215.7378 434.8806 215.7148 435.3956 215.7262 435.9104 215.7812 436.8328 216.1698 437.7662 216.5448 438.6152 217.0848 441.68 218.9616 444.3823 221.3668 446.9165 223.8965 449.6369 226.7731 452.2997 229.7673 454.2361 233.2417 456.3241 231.9863 458.8994 231.4599 461.2793 232.1011 464.4785 232.8489 467.1686 235.3969 468.0726 238.5561 468.7946 240.895 468.4521 243.4496 467.4634 245.6572 471.2094 247.8308 474.4216 250.7944 477.4504 253.8626 479.8945 256.5136 482.2495 259.2958 484.0203 262.4536 484.664 263.6561 485.3123 264.9487 485.2205 266.3535 484.9194 266.7078 484.5492 267.0732 484.0432 266.9905 482.5094 266.8663 481.1686 266.0156 479.8877 265.2361 477.057 263.3803 474.495 261.1358 472.1156 258.7397 469.3073 255.7502 466.6399 252.6018 464.4853 249.1044 462.066 250.6589 458.9524 251.1028 456.2391 250.0886 452.2975 253.6483 448.6249 257.5142 445.1689 261.5477 439.9849 267.6591 435.2559 274.1984 431.348 281.2031 433.7155 285.7314 435.0572 290.8882 435.0572 296.3614 435.0572 302.4808 433.381 308.2054 430.4682 313.0971 433.2498 317.8936 436.6494 322.3191 440.1646 326.598 445.6585 333.1653 451.6191 339.3329 457.8531 345.1969 460.4635 344.6243 463.3401 345.1785 465.4786 346.8155 467.2148 344.2056 469.4706 341.9983 471.759 339.8757 474.5594 337.4104 477.4938 335.067 480.7089 333.1562 482.2588 332.2483 483.8797 331.3857 485.653 331.0058 486.2829 330.8729 486.9405 330.9489 487.5293 331.213 487.7663 332.3767 486.9819 333.3818 486.4207 334.3173" fill="#000000"/>
<path transform="matrix(1,0,0,-1,0,595.2756)" d="M453.8367 283.2157V325.8913H463.5913V283.2157ZM488.465 314.5516C491.7572 314.5516 494.4597 313.4341 496.5732 311.1987 498.7681 308.9225 499.8654 305.8336 499.8654 301.932V283.2157H490.7205V300.5906C490.7205 302.3385 490.233 303.7 489.2576 304.6754 488.2819 305.6508 487.0018 306.1386 485.4166 306.1386 483.6283 306.1386 482.2364 305.6 481.2406 304.5229 480.2448 303.446 479.7471 301.8912 479.7471 299.859V283.2157H470.6022V313.698H479.7471V310.8328C481.576 313.312 484.4818 314.5516 488.465 314.5516ZM514.8017 304.7973C514.8017 304.2689 515.2283 303.8117 516.0818 303.4256 516.9353 303.0395 518.2767 302.6027 520.1056 302.1148 526.6086 300.6924 529.8398 297.4408 529.799 292.3605 529.799 289.0684 528.5798 286.5688 526.1411 284.8618 523.662 283.1953 520.6544 282.3622 517.1185 282.3622 510.6969 282.3622 506.3275 284.7804 504.0108 289.6169L511.9364 294.1285C512.7491 291.7304 514.4766 290.5316 517.1185 290.5316 519.313 290.5316 520.4106 291.1615 520.4106 292.4215 520.4106 293.3155 518.6424 294.2096 515.1064 295.1039 513.8059 295.4696 512.6882 295.8457 511.7533 296.2318 510.8187 296.6179 509.8127 297.1664 508.7356 297.8779 507.6587 298.5891 506.8355 299.5138 506.2666 300.6516 505.6977 301.7897 505.4131 303.0902 505.4131 304.5535 505.4131 307.6829 506.5512 310.142 508.8271 311.9301 511.1031 313.6779 513.9482 314.5516 517.3622 314.5516 522.6866 314.5516 526.6491 312.3774 529.2505 308.0285L521.447 303.8219C520.4716 305.6102 519.1098 306.5043 517.3622 306.5043 515.6552 306.5043 514.8017 305.9354 514.8017 304.7973ZM552.9047 314.5516C556.8877 314.5516 560.3221 312.9868 563.2078 309.8574 566.0529 306.7685 567.4754 302.9683 567.4754 298.457 567.4754 293.9049 566.0529 290.0843 563.2078 286.9954 560.3627 283.9065 556.9285 282.3622 552.9047 282.3622 548.9623 282.3622 545.9343 283.6018 543.8211 286.0809V271.0227H534.6763V313.698H543.8211V310.8328C545.9343 313.312 548.9623 314.5516 552.9047 314.5516ZM545.8329 293.0309C547.2147 291.6899 548.9623 291.0192 551.0758 291.0192 553.1893 291.0192 554.9165 291.6899 556.2578 293.0309 557.6397 294.3723 558.3305 296.1808 558.3305 298.457 558.3305 300.7329 557.6397 302.5417 556.2578 303.8828 554.9165 305.2242 553.1893 305.8946 551.0758 305.8946 548.9623 305.8946 547.2147 305.2242 545.8329 303.8828 544.4915 302.5417 543.8211 300.7329 543.8211 298.457 543.8211 296.1808 544.4915 294.3723 545.8329 293.0309ZM602.4694 294.7989H580.8266C581.8428 291.954 584.2814 290.5316 588.1425 290.5316 590.6217 290.5316 592.5725 291.3038 593.9952 292.8481L601.3108 288.6415C598.3438 284.4553 593.9138 282.3622 588.0206 282.3622 582.9401 282.3622 578.8352 283.8864 575.7055 286.9345 572.6574 289.9828 571.1332 293.8235 571.1332 298.457 571.1332 303.0089 572.637 306.8294 575.6445 309.9183 578.6929 313.0072 582.5945 314.5516 587.3499 314.5516 591.7802 314.5516 595.4581 313.0072 598.3846 309.9183 601.3517 306.9108 602.835 303.0902 602.835 298.457 602.835 297.1565 602.7131 295.937 602.4694 294.7989ZM580.6437 301.627H593.7511C592.8571 304.8381 590.703 306.4433 587.289 306.4433 583.753 306.4433 581.538 304.8381 580.6437 301.627ZM622.0392 282.3622C617.406 282.3622 613.5446 283.9065 610.4557 286.9954 607.4076 290.0843 605.8834 293.9049 605.8834 298.457 605.8834 303.0089 607.4076 306.8294 610.4557 309.9183 613.5446 313.0072 617.406 314.5516 622.0392 314.5516 624.9249 314.5516 627.6073 313.8403 630.0865 312.4179 632.5659 310.9955 634.4759 309.1054 635.8173 306.7481L627.8309 302.1148C626.7334 304.3908 624.7621 305.5289 621.9173 305.5289 619.9257 305.5289 618.2796 304.8684 616.9791 303.5475 615.6785 302.2265 615.0283 300.5297 615.0283 298.457 615.0283 296.384 615.6785 294.6872 616.9791 293.3663 618.2796 292.0453 619.9257 291.3851 621.9173 291.3851 624.803 291.3851 626.7742 292.523 627.8309 294.7989L635.8173 290.2266C634.4759 287.788 632.5758 285.8678 630.1171 284.4655 627.658 283.0632 624.9654 282.3622 622.0392 282.3622ZM657.3379 313.698V304.9191H651.0583V294.1285C651.0583 292.9499 651.5257 292.1876 652.4606 291.8424 653.3955 291.4968 655.0211 291.3851 657.3379 291.507V283.2157C651.5666 282.606 647.5428 283.1547 645.2668 284.8618 643.0314 286.6093 641.9137 289.6982 641.9137 294.1285V304.9191H637.0364V313.698H641.9137V319.4898L651.0583 322.2332V313.698Z" fill="#000000"/>
<path transform="matrix(1,0,0,-1,0,595.2756)" d="M184.5221 325.872H201.5923C207.445 325.872 212.3629 323.8194 216.3458 319.7146 220.3291 315.6094 222.3204 310.5493 222.3204 304.5342 222.3204 298.4783 220.3291 293.398 216.3458 289.2929 212.4034 285.2286 207.4856 283.1964 201.5923 283.1964H184.5221ZM194.2767 292.585H201.5923C204.9659 292.585 207.6888 293.6622 209.7618 295.8163 211.875 297.9703 212.9318 300.8764 212.9318 304.5342 212.9318 308.192 211.875 311.0777 209.7618 313.1912 207.6888 315.3858 204.9659 316.4834 201.5923 316.4834H194.2767ZM236.6473 313.6788V308.253C237.2162 310.1632 238.3441 311.6466 240.0307 312.7034 241.7173 313.7601 243.6378 314.2885 245.7918 314.2885V303.9245C243.5159 304.2904 241.4228 303.9041 239.5125 302.7662 237.6023 301.6689 236.6473 299.7383 236.6473 296.9745V283.1964H227.5024V313.6788ZM275.5426 286.9761C272.4537 283.8872 268.6334 282.3429 264.0813 282.3429 259.5291 282.3429 255.7089 283.8872 252.6199 286.9761 249.4902 290.1059 247.9255 293.9261 247.9255 298.4377 247.9255 302.9085 249.4902 306.7087 252.6199 309.8381 255.7494 312.9676 259.5699 314.5323 264.0813 314.5323 268.5926 314.5323 272.4131 312.9676 275.5426 309.8381 278.6723 306.7087 280.237 302.9085 280.237 298.4377 280.237 293.9261 278.6723 290.1059 275.5426 286.9761ZM257.0703 298.4377C257.0703 296.3242 257.741 294.5968 259.0821 293.2557 260.4234 291.9144 262.0896 291.2437 264.0813 291.2437 266.0729 291.2437 267.7391 291.9144 269.0804 293.2557 270.4215 294.5968 271.0922 296.3242 271.0922 298.4377 271.0922 300.5512 270.4215 302.2784 269.0804 303.6197 267.7391 304.9608 266.0729 305.6315 264.0813 305.6315 262.0896 305.6315 260.4234 304.9608 259.0821 303.6197 257.741 302.2784 257.0703 300.5512 257.0703 298.4377ZM303.2819 314.5323C306.574 314.5323 309.2766 313.4149 311.3901 311.1795 313.5849 308.9032 314.6822 305.8143 314.6822 301.9127V283.1964H305.5374V300.5714C305.5374 302.3192 305.0498 303.6807 304.0744 304.6561 303.0987 305.6315 301.8186 306.1193 300.2335 306.1193 298.4451 306.1193 297.0533 305.5808 296.0575 304.5036 295.0617 303.4267 294.5639 301.8719 294.5639 299.8397V283.1964H285.4191V313.6788H294.5639V310.8135C296.3928 313.2927 299.2986 314.5323 303.2819 314.5323ZM350.7735 294.7796H329.1307C330.1469 291.9348 332.5856 290.5123 336.4466 290.5123 338.9258 290.5123 340.8766 291.2845 342.2993 292.8288L349.615 288.6222C346.648 284.436 342.218 282.3429 336.3248 282.3429 331.2442 282.3429 327.1394 283.8671 324.0096 286.9152 320.9615 289.9636 319.4374 293.8042 319.4374 298.4377 319.4374 302.9896 320.9411 306.8101 323.9487 309.8991 326.9971 312.988 330.8987 314.5323 335.6541 314.5323 340.0843 314.5323 343.7623 312.988 346.6888 309.8991 349.6558 306.8915 351.1392 303.071 351.1392 298.4377 351.1392 297.1372 351.0173 295.9177 350.7735 294.7796ZM328.9479 301.6077H342.0553C341.1612 304.8188 339.0072 306.4241 335.5931 306.4241 332.0572 306.4241 329.8422 304.8188 328.9479 301.6077" fill="#000000"/>
<path transform="matrix(1,0,0,-1,0,595.2756)" d="M403.2437 309.5008C410.3544 309.5008 416.1186 303.7232 416.1186 296.5963 416.1186 289.4695 410.3544 283.6919 403.2437 283.6919 396.1327 283.6919 390.3684 289.4695 390.3684 296.5963 390.3684 303.7232 396.1327 309.5008 403.2437 309.5008ZM410.7237 304.1059C408.814 306.0196 406.1693 307.2039 403.2437 307.2039 400.3177 307.2039 397.673 306.0196 395.7633 304.1059 393.8496 302.188 392.6653 299.5322 392.6653 296.5963 392.6653 293.6605 393.8496 291.0047 395.7633 289.0868 397.673 287.1729 400.3177 285.9888 403.2437 285.9888 406.1693 285.9888 408.814 287.1729 410.7237 289.0868 412.6374 291.0047 413.8217 293.6605 413.8217 296.5963 413.8217 299.5322 412.6374 302.188 410.7237 304.1059" fill="#000000" fill-rule="evenodd"/>
<path transform="matrix(1,0,0,-1,0,595.2756)" d="M386.6479 297.436H390.4438C390.9059 297.436 391.2834 297.0584 391.2834 296.5963 391.2834 296.134 390.9059 295.7564 390.4438 295.7564H386.6479C386.1856 295.7564 385.808 296.134 385.808 296.5963 385.808 297.0584 386.1856 297.436 386.6479 297.436" fill="#000000" fill-rule="evenodd"/>
<path transform="matrix(1,0,0,-1,0,595.2756)" d="M416.0432 297.436H419.8391C420.3014 297.436 420.679 297.0584 420.679 296.5963 420.679 296.134 420.3014 295.7564 419.8391 295.7564H416.0432C415.5812 295.7564 415.2036 296.134 415.2036 296.5963 415.2036 297.0584 415.5812 297.436 416.0432 297.436" fill="#000000" fill-rule="evenodd"/>
<path transform="matrix(1,0,0,-1,0,595.2756)" d="M402.4037 280.0006V283.7965C402.4037 284.2586 402.7813 284.6361 403.2437 284.6361 403.7057 284.6361 404.0833 284.2586 404.0833 283.7965V280.0006C404.0833 279.5386 403.7057 279.161 403.2437 279.161 402.7813 279.161 402.4037 279.5386 402.4037 280.0006" fill="#000000" fill-rule="evenodd"/>
<path transform="matrix(1,0,0,-1,0,595.2756)" d="M402.4037 309.3962V313.1921C402.4037 313.6541 402.7813 314.0317 403.2437 314.0317 403.7057 314.0317 404.0833 313.6541 404.0833 313.1921V309.3962C404.0833 308.9339 403.7057 308.5563 403.2437 308.5563 402.7813 308.5563 402.4037 308.9339 402.4037 309.3962" fill="#000000" fill-rule="evenodd"/>
<path transform="matrix(1,0,0,-1,0,595.2756)" d="M402.4037 290.937V302.2554C402.4037 302.7178 402.7813 303.0951 403.2437 303.0951 403.7057 303.0951 404.0833 302.7178 404.0833 302.2554V290.937C404.0833 290.4746 403.7057 290.0974 403.2437 290.0974 402.7813 290.0974 402.4037 290.4746 402.4037 290.937" fill="#000000" fill-rule="evenodd"/>
<path transform="matrix(1,0,0,-1,0,595.2756)" d="M397.5843 297.436H408.9027C409.3651 297.436 409.7424 297.0584 409.7424 296.5963 409.7424 296.134 409.3651 295.7564 408.9027 295.7564H397.5843C397.122 295.7564 396.7447 296.134 396.7447 296.5963 396.7447 297.0584 397.122 297.436 397.5843 297.436" fill="#000000" fill-rule="evenodd"/>
</g>
</svg>
